<svg width="344" height="365" viewBox="0 0 344 365" fill="none" xmlns="http://www.w3.org/2000/svg">
<path fill-rule="evenodd" clip-rule="evenodd" d="M50 171.765C22.3858 171.765 0 194.15 0 221.765V315C0 342.614 22.3858 365 50 365H207.647C235.261 365 257.647 342.614 257.647 315V221.765C257.647 194.15 235.261 171.765 207.647 171.765H50ZM107.353 246.482C107.353 254.251 111.479 261.056 117.659 264.825V299.729C117.659 305.895 122.657 310.894 128.824 310.894C134.99 310.894 139.988 305.895 139.988 299.729V264.825C146.168 261.056 150.294 254.251 150.294 246.482C150.294 234.633 140.696 225.026 128.85 225.012L128.824 225.012L128.797 225.012C116.951 225.026 107.353 234.633 107.353 246.482Z" fill="black"/>
<path fill-rule="evenodd" clip-rule="evenodd" d="M343.529 85.8824C343.529 63.1049 334.481 41.2604 318.375 25.1544C302.269 9.04829 280.424 0 257.647 0C234.87 0 213.025 9.04829 196.919 25.1544C180.813 41.2604 171.765 63.1049 171.765 85.8823V163.176H214.706V85.8823C214.706 74.4936 219.23 63.5714 227.283 55.5184C235.336 47.4653 246.258 42.9412 257.647 42.9412C269.036 42.9412 279.958 47.4653 288.011 55.5184C296.064 63.5714 300.588 74.4936 300.588 85.8824V141.706H343.529V85.8824Z" fill="black"/>
</svg>
