<svg width="344" height="365" viewBox="0 0 344 365" fill="none" xmlns="http://www.w3.org/2000/svg">
<path fill-rule="evenodd" clip-rule="evenodd" d="M214.706 107.353C214.706 84.5755 205.658 62.731 189.552 46.6249C173.445 30.5189 151.601 21.4706 128.824 21.4706C106.046 21.4706 84.2016 30.5189 68.0955 46.6249C51.9895 62.731 42.9412 84.5755 42.9412 107.353L85.8823 107.353L42.9412 107.353V163.176H85.8823L85.8823 107.353C85.8823 95.9642 90.4065 85.042 98.4595 76.9889C106.513 68.9359 117.435 64.4118 128.824 64.4118C140.212 64.4118 151.134 68.9359 159.188 76.9889C167.241 85.042 171.765 95.9642 171.765 107.353L171.765 163.176H214.706L214.706 107.353Z" fill="black"/>
<path fill-rule="evenodd" clip-rule="evenodd" d="M50 171.765C22.3858 171.765 0 194.15 0 221.765V315C0 342.614 22.3858 365 50 365H207.647C235.261 365 257.647 342.614 257.647 315V221.765C257.647 194.15 235.261 171.765 207.647 171.765H50ZM107.353 246.482C107.353 254.251 111.479 261.056 117.659 264.825V299.729C117.659 305.895 122.657 310.894 128.824 310.894C134.99 310.894 139.988 305.895 139.988 299.729V264.825C146.168 261.056 150.294 254.251 150.294 246.482C150.294 234.633 140.696 225.026 128.85 225.012L128.824 225.012L128.797 225.012C116.951 225.026 107.353 234.633 107.353 246.482Z" fill="black"/>
</svg>
